<?xml version="1.0" standalone="no"?>
<!DOCTYPE svg PUBLIC "-//W3C//DTD SVG 20010904//EN"
 "http://www.w3.org/TR/2001/REC-SVG-20010904/DTD/svg10.dtd">
<svg version="1.0" xmlns="http://www.w3.org/2000/svg"
 width="700.000000pt" height="700.000000pt" viewBox="0 0 700.000000 700.000000"
 preserveAspectRatio="xMidYMid meet">
<metadata>
Created by potrace 1.14, written by Peter Selinger 2001-2017
</metadata>
<g transform="translate(0.000000,700.000000) scale(0.100000,-0.100000)"
fill="#000000" stroke="none">
<path d="M0 3500 l0 -3500 3500 0 3500 0 0 3500 0 3500 -3500 0 -3500 0 0
-3500z m6000 1925 l0 -805 110 0 c71 0 122 -5 143 -14 42 -17 83 -66 98 -116
24 -80 -33 -176 -118 -199 -29 -8 -810 -10 -2755 -9 l-2714 3 -41 27 c-49 32
-73 80 -73 146 0 63 30 109 90 140 38 19 60 22 152 22 l108 0 0 805 0 805
2500 0 2500 0 0 -805z m-4670 -2915 l0 -1400 2170 0 2170 0 0 1400 0 1400 165
0 165 0 0 -1570 0 -1570 -2500 0 -2500 0 0 1570 0 1570 165 0 165 0 0 -1400z
m3187 1386 c-3 -7 -22 -68 -42 -135 -125 -421 -403 -1196 -735 -2052 -156
-403 -165 -419 -240 -419 -75 0 -84 16 -240 419 -332 856 -610 1631 -735 2052
-20 67 -39 128 -42 135 -4 12 162 14 1017 14 855 0 1021 -2 1017 -14z"/>
<path d="M1330 5255 l0 -635 504 0 503 0 6 83 c10 121 49 263 105 382 65 135
118 211 222 319 406 422 1069 470 1540 111 74 -57 197 -187 250 -264 104 -154
183 -374 197 -547 l6 -84 503 0 504 0 0 635 0 635 -2170 0 -2170 0 0 -635z"/>
<path d="M3351 5144 c-179 -48 -323 -213 -352 -402 -6 -41 -8 -84 -5 -98 l6
-24 485 0 485 0 -1 58 c-2 219 -153 412 -366 467 -71 19 -181 18 -252 -1z"/>
</g>
</svg>
